<?xml version="1.0" standalone="no"?>
<!DOCTYPE svg PUBLIC "-//W3C//DTD SVG 20010904//EN"
 "http://www.w3.org/TR/2001/REC-SVG-20010904/DTD/svg10.dtd">
<svg version="1.0" xmlns="http://www.w3.org/2000/svg"
 width="960.000000pt" height="960.000000pt" viewBox="0 0 960.000000 960.000000"
 preserveAspectRatio="xMidYMid meet">
<metadata>
Created by potrace 1.11, written by Peter Selinger 2001-2013
</metadata>
<g transform="translate(0.000000,960.000000) scale(0.100000,-0.100000)"
fill="#000000" stroke="none">
<path d="M0 4800 l0 -4800 4800 0 4800 0 0 4800 0 4800 -4800 0 -4800 0 0
-4800z m6906 4598 c4 -6 2 -14 -4 -16 -7 -2 -12 -8 -12 -12 0 -5 -17 -46 -39
-92 -21 -46 -41 -93 -45 -106 -5 -13 -10 -21 -13 -18 -3 2 13 50 36 105 23 55
41 111 41 125 0 27 23 36 36 14z m-1686 -24 c6 -16 7 -32 1 -42 -8 -14 -11
-12 -17 13 -4 17 -11 36 -17 43 -7 8 -5 12 7 12 9 0 21 -12 26 -26z m1436 14
c0 -7 21 -56 47 -108 36 -73 48 -111 52 -159 6 -68 -6 -75 -25 -15 -7 19 -13
41 -14 47 -1 7 -14 39 -29 71 -15 33 -33 79 -39 103 -8 34 -15 43 -32 43 -20
1 -20 2 4 15 31 18 38 18 36 3z m-3544 -60 c-1 -35 -5 -74 -8 -87 -9 -43 -22
-4 -21 61 2 52 0 58 -18 58 -15 1 -13 4 10 15 17 7 32 14 35 14 3 1 4 -27 2
-61z m1297 10 c1 -60 -6 -88 -21 -88 -5 0 -8 6 -5 13 2 6 1 35 -3 64 -5 43 -3
53 9 56 9 3 17 5 17 6 1 0 2 -23 3 -51z m666 32 c-17 -19 -17 -23 -3 -53 12
-25 28 -38 65 -51 58 -22 121 -63 134 -88 8 -16 3 -28 -26 -64 -38 -46 -59
-54 -31 -12 9 13 15 41 14 62 -1 38 -3 40 -72 72 -83 39 -116 65 -116 91 0 23
27 63 42 63 6 0 3 -9 -7 -20z m962 -100 c-3 -47 -8 -94 -10 -105 -3 -11 -6
-37 -6 -57 -1 -21 -4 -38 -8 -38 -5 0 -8 70 -8 155 0 129 2 155 15 158 21 4
23 -13 17 -113z m-2292 77 c-9 -14 -15 -40 -13 -61 l2 -35 118 3 c65 2 121 0
124 -5 3 -5 -53 -9 -125 -9 -118 0 -151 -7 -122 -24 5 -3 12 -26 15 -51 4 -25
11 -45 17 -45 17 0 9 -18 -10 -23 -26 -7 -47 18 -62 75 -16 60 1 142 37 182
31 32 43 28 19 -7z m395 -72 c0 -99 -14 -200 -28 -209 -4 -2 -7 67 -7 155 0
145 2 159 18 159 15 0 17 -12 17 -105z m-1218 6 c0 -31 2 -89 4 -128 l2 -73
-30 0 c-17 0 -27 4 -23 10 4 6 12 7 18 3 8 -4 7 -1 -1 9 -12 14 -11 114 0 257
1 10 5 9 15 -5 7 -10 14 -43 15 -73z m1008 68 c7 -11 9 -28 5 -37 -5 -14 -9
-13 -20 8 -8 14 -14 31 -15 38 0 19 18 14 30 -9z m2220 -155 c0 -104 -2 -124
-15 -124 -13 0 -15 20 -15 123 0 68 3 127 6 130 18 18 24 -15 24 -129z m-2925
53 c24 -19 29 -172 5 -172 -12 0 -15 14 -16 60 -1 109 -2 113 -26 118 -21 4
-21 4 -2 6 11 0 28 -5 39 -12z m245 -26 c0 -10 -7 -18 -15 -18 -9 0 -15 7 -13
16 1 9 -1 22 -6 29 -7 11 -4 12 13 3 11 -7 21 -20 21 -30z m1288 -61 c3 -72 0
-91 -10 -88 -16 6 -28 169 -14 180 18 12 21 0 24 -92z m722 90 c18 -12 2 -12
-25 0 -13 6 -15 9 -5 9 8 0 22 -4 30 -9z m120 -17 c-1 -16 2 -58 6 -95 6 -65
6 -68 -14 -68 -19 0 -21 6 -21 48 0 43 18 142 26 142 2 0 3 -12 3 -27z m-1091
-34 c-16 -46 -29 -59 -29 -28 0 21 30 73 37 65 2 -2 -2 -18 -8 -37z m131 20
c0 -5 -4 -9 -10 -9 -5 0 -10 7 -10 16 0 8 5 12 10 9 6 -3 10 -10 10 -16z
m1120 6 c-13 -16 -10 -82 6 -120 8 -19 7 -19 -16 -4 -42 28 -43 96 -3 127 23
16 28 15 13 -3z m170 -52 c0 -19 -41 -93 -51 -93 -5 0 -3 13 2 30 6 16 9 53 7
81 l-3 50 23 -26 c12 -14 22 -33 22 -42z m360 2 c23 -15 39 -29 36 -32 -8 -8
-76 37 -76 50 0 8 -3 7 -9 -1 -7 -11 -9 -11 -14 2 -4 9 -4 23 0 33 5 14 7 13
14 -5 5 -12 27 -33 49 -47z m-2301 9 c-3 -53 -19 -71 -19 -20 0 34 8 66 17 66
2 0 3 -21 2 -46z m414 -6 c-1 -29 -2 -61 -2 -70 -1 -10 -5 -18 -11 -18 -15 0
-13 127 3 133 6 3 12 6 12 6 0 1 -1 -23 -2 -51z m-1069 -17 c-7 -54 -24 -61
-24 -10 0 31 18 75 26 66 3 -3 2 -28 -2 -56z m913 45 c-8 -20 11 -87 31 -108
23 -27 -8 -24 -36 2 -24 22 -29 68 -12 101 12 22 25 26 17 5z m1108 -35 c0
-40 5 -53 25 -70 14 -11 20 -20 15 -21 -21 0 -65 51 -65 76 0 21 15 64 23 64
1 0 2 -22 2 -49z m-2254 19 c4 -60 3 -82 -3 -98 -4 -9 -7 6 -7 35 -1 28 -4 58
-7 67 -3 9 -1 16 5 16 6 0 12 -9 12 -20z m1403 -82 c-4 -6 -10 -5 -15 3 -14
22 -10 33 6 19 8 -7 12 -17 9 -22z m524 12 c-7 -10 -14 -17 -17 -15 -4 4 18
35 25 35 2 0 -1 -9 -8 -20z m66 -39 c-7 -7 -44 31 -38 41 3 4 14 -2 24 -14 10
-13 16 -25 14 -27z m1246 37 c0 -7 -5 -20 -10 -28 -8 -12 -10 -9 -10 13 0 15
5 27 10 27 6 0 10 -6 10 -12z m-2961 -36 c-12 -5 -39 17 -39 30 0 5 11 1 24
-9 13 -10 20 -20 15 -21z m600 -86 c-5 -22 -7 -9 -7 44 0 65 1 69 8 31 4 -24
3 -58 -1 -75z m-179 84 c0 -5 -2 -10 -4 -10 -3 0 -8 5 -11 10 -3 6 -1 10 4 10
6 0 11 -4 11 -10z m-680 -330 c17 -5 -1 -8 -55 -8 -57 0 -71 3 -50 8 39 10 74
10 105 0z m125 -1 c-8 -12 -75 -12 -75 0 0 5 18 9 40 9 23 1 38 -3 35 -9z
m404 -4 c2 -3 -75 -5 -172 -5 -117 0 -177 4 -177 10 0 11 338 5 349 -5z m406
5 c4 -7 -48 -10 -149 -10 -97 0 -156 4 -156 10 0 6 56 10 149 10 89 0 152 -4
156 -10z m1385 -1 c50 -2 52 -2 20 -9 -48 -10 -1096 -12 -1245 -3 l-120 8 195
5 c160 4 940 3 1150 -1z m705 1 c-8 -13 -45 -13 -65 0 -11 7 -3 10 28 10 26 0
41 -4 37 -10z m315 0 c0 -5 -7 -10 -15 -10 -8 0 -15 5 -15 10 0 6 7 10 15 10
8 0 15 -4 15 -10z m-3487 -7 c-7 -2 -21 -2 -30 0 -10 3 -4 5 12 5 17 0 24 -2
18 -5z m2675 0 c-15 -2 -42 -2 -60 0 -18 2 -6 4 27 4 33 0 48 -2 33 -4z m1565
0 c-24 -2 -62 -2 -85 0 -24 2 -5 4 42 4 47 0 66 -2 43 -4z m-5443 -334 c32 -7
53 -17 56 -27 3 -10 10 -25 15 -34 8 -16 5 -15 -36 2 -72 31 -150 41 -223 30
-36 -6 -74 -16 -85 -21 -14 -8 -18 -8 -13 0 4 6 2 11 -3 11 -6 0 -11 4 -11 8
0 8 16 14 95 37 25 8 159 4 205 -6z m1004 -20 c-18 -20 -19 -43 -22 -349 -3
-355 -5 -370 -52 -332 -22 18 -22 19 -21 331 0 228 4 317 13 328 13 16 65 41
87 42 10 1 9 -5 -5 -20z m430 6 c19 -14 18 -15 -11 -15 -18 0 -33 6 -37 15 -7
20 22 19 48 0z m936 -10 c-27 -32 -5 -97 94 -283 53 -100 96 -187 96 -194 -1
-7 -7 -24 -14 -37 -13 -23 -14 -21 -60 55 -26 44 -76 135 -111 204 -35 69 -76
148 -91 177 -16 28 -26 55 -22 59 10 10 112 43 117 39 2 -3 -2 -11 -9 -20z
m1157 0 c35 -17 48 -66 37 -135 -6 -35 -10 -40 -34 -40 -26 0 -27 2 -34 71 -4
47 -3 76 5 85 8 10 3 15 -23 23 -30 8 -31 9 -7 10 14 1 40 -6 56 -14z m1302
-1 l39 -15 -2 -215 c-1 -179 -4 -216 -16 -224 -13 -8 -13 -10 2 -10 16 0 18
-20 18 -253 l0 -253 -53 -32 c-57 -34 -77 -41 -54 -17 32 32 38 114 37 555
l-2 435 24 6 23 6 -25 10 c-14 6 -32 13 -40 16 -9 3 -10 6 -3 6 7 1 30 -6 52
-15z m733 -437 c-2 -375 -4 -421 -19 -432 -14 -11 -14 -13 7 -18 12 -3 19 -10
16 -15 -3 -6 -15 -8 -26 -5 -15 4 -20 0 -20 -15 0 -13 9 -22 25 -26 24 -6 36
-26 15 -26 -5 0 -10 5 -10 11 0 5 -10 3 -22 -5 -29 -21 -42 -20 -33 2 4 9 9
42 12 72 3 30 9 63 14 72 5 10 5 18 -1 20 -7 2 -12 136 -15 368 -5 361 -8 414
-27 437 -6 8 7 6 39 -4 l48 -15 -3 -421z m828 439 c14 -18 13 -19 -65 -126
-93 -127 -167 -220 -175 -220 -11 0 -5 52 9 78 14 27 165 238 188 265 19 21
27 21 43 3z m-651 -61 c11 -19 18 -35 15 -35 -10 0 -53 55 -54 68 0 20 16 6
39 -33z m-48 -27 c18 -29 36 -55 39 -58 3 -3 33 -39 66 -80 69 -84 133 -188
97 -157 -11 10 -35 40 -54 67 -29 42 -46 56 -92 78 -5 3 -3 -6 4 -19 10 -20 8
-19 -17 6 -46 46 -76 94 -70 110 3 8 -2 18 -11 23 -12 7 -13 13 -4 30 6 11 8
28 5 36 -12 31 5 15 37 -36z m-6017 -88 c2 -59 6 -72 31 -102 41 -47 101 -90
220 -155 55 -30 89 -52 75 -48 -14 3 -38 7 -53 9 -16 1 -33 9 -38 17 -7 12
-13 7 -11 -12 2 -17 -72 9 -128 46 -74 48 -116 90 -153 154 -22 39 -26 41 -32
22 -7 -24 -23 -28 -31 -7 -9 23 21 121 37 121 8 0 25 13 38 28 22 26 25 27 34
12 5 -9 10 -47 11 -85z m6776 50 c13 -8 15 -59 18 -336 2 -199 -1 -338 -7
-355 -7 -19 -7 -50 0 -91 9 -55 8 -64 -7 -75 -22 -16 -38 -17 -28 -2 4 8 -1 9
-16 4 -20 -6 -22 -5 -17 16 4 13 7 45 7 71 0 38 4 48 20 53 11 4 18 11 14 16
-3 5 -9 7 -14 4 -4 -3 -10 1 -13 8 -5 15 1 254 7 282 3 12 0 32 -7 45 -18 37
-17 331 2 353 15 19 20 20 41 7z m-2332 -23 c22 -14 12 -183 -14 -215 -1 -2
-12 3 -24 10 -18 10 -24 10 -27 1 -3 -7 -11 -13 -18 -13 -11 0 -10 7 3 33 10
20 17 58 17 102 0 39 4 76 8 82 8 13 33 13 55 0z m1692 -27 c0 -5 -5 -10 -11
-10 -5 0 -7 5 -4 10 3 6 8 10 11 10 2 0 4 -4 4 -10z m-2259 -61 c19 -10 20
-21 18 -235 -1 -213 -2 -225 -21 -235 -18 -10 -18 -12 -4 -28 9 -10 14 -25 11
-34 -4 -8 -2 -18 4 -22 7 -3 11 -42 11 -94 0 -85 -1 -88 -30 -109 -16 -12 -31
-22 -34 -22 -7 0 -7 737 0 765 7 27 15 30 45 14z m2274 -129 c3 -5 1 -10 -4
-10 -6 0 -11 5 -11 10 0 6 2 10 4 10 3 0 8 -4 11 -10z m-1717 -68 c-39 -41
-116 -75 -154 -67 -31 5 -49 25 -23 25 16 0 129 52 129 59 0 3 16 6 35 7 l35
1 -22 -25z m1769 2 c3 -9 15 -26 27 -38 40 -42 118 -157 112 -164 -8 -7 -55
48 -56 65 0 6 -3 13 -8 15 -8 4 -61 70 -87 111 -11 17 -13 27 -6 27 6 0 14 -7
18 -16z m83 -35 c15 -28 5 -23 -15 7 -9 15 -12 23 -6 20 6 -4 16 -16 21 -27z
m-2000 17 c0 -2 -7 -7 -16 -10 -8 -3 -12 -2 -9 4 6 10 25 14 25 6z m-80 -25
l-25 -8 25 -5 c14 -3 -5 -6 -42 -7 -37 0 -70 3 -73 9 -4 6 10 9 34 8 23 -1 44
2 48 5 3 4 18 7 32 6 l26 -1 -25 -7z m-3907 -26 c32 -8 71 -15 86 -15 21 0 40
-12 70 -46 79 -85 102 -174 57 -219 -14 -14 -33 -38 -42 -55 -10 -16 -22 -30
-26 -30 -5 0 -13 -11 -18 -25 -13 -35 -96 -92 -154 -106 -113 -27 -252 10
-340 91 -46 43 -64 79 -66 140 -3 58 -1 57 25 -4 41 -101 111 -155 228 -177
65 -11 148 0 206 28 41 20 81 75 81 109 0 13 9 28 20 34 21 11 23 9 20 -29 -1
-16 2 -21 10 -16 18 11 6 116 -17 163 -22 42 -91 98 -169 136 -81 40 -70 47
29 21z m1282 -70 c11 -5 23 -13 27 -18 3 -6 14 -11 25 -12 43 -4 63 -20 117
-94 57 -80 69 -108 40 -97 -9 3 -25 6 -36 6 -18 0 -69 45 -108 96 -8 11 -33
35 -55 54 -22 18 -48 44 -58 56 -17 22 -17 23 5 20 13 -2 32 -7 43 -11z m1339
-35 l26 -10 0 -176 c0 -161 2 -180 21 -210 11 -19 18 -34 14 -34 -11 0 -69 32
-87 48 -24 20 -24 72 -1 72 15 0 14 2 -3 15 -19 14 -11 20 24 16 6 -1 12 3 12
8 0 5 -10 11 -22 13 -22 3 -23 7 -26 136 -1 80 1 132 7 132 5 0 21 -4 35 -10z
m1389 -114 c26 -28 47 -51 47 -53 0 -20 -121 112 -127 138 -2 8 4 3 14 -11 10
-14 39 -47 66 -74z m-3029 8 c13 -5 16 -24 16 -102 0 -84 -3 -98 -21 -118
l-22 -23 26 -12 c14 -6 35 -24 47 -41 l21 -29 -50 25 c-27 14 -52 29 -55 34
-4 6 -10 237 -7 265 1 9 23 9 45 1z m549 -103 c7 -1 97 -135 97 -145 0 -3 -8
-2 -17 1 -16 6 -16 5 -4 -10 18 -22 -1 -22 -27 1 -26 21 -110 121 -123 144 -9
16 5 18 74 9z m2624 -57 c3 -8 11 -14 18 -14 13 0 108 -130 101 -138 -3 -2
-20 4 -40 13 -31 15 -62 53 -119 152 -5 7 0 9 14 6 11 -3 23 -12 26 -19z
m-2629 -129 c-11 -11 -68 -23 -68 -15 0 5 12 11 28 13 15 2 31 5 36 6 5 0 7
-1 4 -4z m192 -25 c8 -5 11 -10 5 -10 -5 0 -17 5 -25 10 -8 5 -10 10 -5 10 6
0 17 -5 25 -10z m3800 6 c0 -2 -7 -7 -16 -10 -8 -3 -12 -2 -9 4 6 10 25 14 25
6z m-1998 -1583 c-5 -78 -22 -91 -22 -18 0 36 18 103 25 93 1 -2 0 -36 -3 -75z
m168 -298 c45 -104 101 -230 125 -280 24 -49 55 -123 69 -162 l25 -73 -25 16
c-20 14 -33 39 -39 74 0 3 -11 27 -23 54 -12 27 -22 54 -22 60 0 6 -16 47 -36
91 -95 217 -181 438 -160 414 2 -2 40 -89 86 -194z m-970 115 c26 -26 26 -27
-13 -22 -62 7 -67 -3 -157 -368 -86 -347 -97 -387 -106 -377 -13 12 112 532
172 719 22 68 64 88 104 48z m865 -16 c31 -28 36 -37 25 -44 -12 -8 -13 -15
-3 -41 7 -18 10 -36 7 -41 -3 -5 -1 -14 5 -21 25 -31 122 -440 111 -472 -8
-24 -1 -48 -90 310 -49 196 -75 284 -87 293 -12 9 -33 12 -60 8 -49 -6 -56 6
-15 27 43 23 65 19 107 -19z m127 -294 c27 -80 83 -244 125 -365 112 -332 169
-495 186 -541 l15 -42 -33 0 c-19 0 -34 3 -33 7 1 6 0 12 -21 71 -7 19 -24 76
-38 125 -14 50 -33 108 -43 130 -9 22 -23 61 -30 88 -7 26 -17 47 -21 47 -5 0
-8 3 -7 8 4 13 -13 96 -21 107 -5 5 -11 21 -14 35 -12 58 -18 77 -36 134 -11
34 -27 86 -35 116 -8 30 -28 105 -45 166 -52 188 -32 154 51 -86z m-1216 108
c-13 -35 -33 -85 -45 -111 -12 -27 -21 -53 -21 -58 0 -15 -51 -91 -57 -85 -3
3 15 48 41 100 25 52 46 97 46 99 0 9 52 117 56 117 2 0 -7 -28 -20 -62z m430
-84 c-10 -14 -20 -23 -23 -20 -3 3 2 17 11 32 10 14 20 23 23 20 3 -3 -2 -17
-11 -32z m-532 -48 c-14 -36 -31 -69 -36 -72 -6 -4 -9 -3 -7 3 27 65 63 142
66 139 2 -2 -8 -33 -23 -70z m503 -103 c1 -27 7 -49 12 -51 5 -2 7 -10 4 -18
-4 -10 0 -12 11 -8 9 3 16 1 16 -5 0 -6 -6 -11 -14 -11 -8 0 -16 -10 -18 -22
l-3 -23 -13 23 c-13 23 -32 149 -24 157 16 16 27 -1 29 -42z m-578 -65 c-45
-105 -100 -211 -105 -206 -2 3 26 68 63 146 70 147 98 188 42 60z m1052 -82
c-16 -19 -166 -116 -180 -116 -19 0 -17 25 3 46 12 11 48 31 81 44 33 13 69
29 79 37 24 15 33 9 17 -11z m-416 -16 c4 -6 -5 -10 -20 -10 -15 0 -24 4 -20
10 3 6 12 10 20 10 8 0 17 -4 20 -10z m3 -38 c-5 -16 1 -18 46 -17 63 2 88 -5
60 -16 -48 -19 -154 3 -154 32 0 6 4 8 8 5 4 -2 14 -1 22 5 21 12 23 11 18 -9z
m812 -87 c7 -31 17 -58 21 -60 4 -3 5 -14 2 -26 -3 -11 -1 -30 5 -42 6 -12 24
-74 40 -137 16 -63 30 -119 32 -125 1 -5 2 -29 1 -53 -1 -47 -21 -50 -21 -4 0
15 -12 70 -26 122 -14 52 -32 124 -39 160 -8 36 -23 96 -34 134 -11 38 -18 73
-15 77 12 20 21 6 34 -46z m-854 13 c-9 -5 -16 -17 -16 -27 0 -16 -38 -51 -54
-51 -7 0 16 50 38 83 15 22 21 25 33 15 12 -10 12 -13 -1 -20z m-479 -90 c-3
-8 -6 -5 -6 6 -1 11 2 17 5 13 3 -3 4 -12 1 -19z m383 2 c0 -5 -4 -10 -10 -10
-5 0 -10 5 -10 10 0 6 5 10 10 10 6 0 10 -4 10 -10z m1184 -29 c-6 -6 -24 19
-24 34 1 6 7 1 15 -9 8 -11 12 -22 9 -25z m-854 3 c87 -3 224 -73 218 -113 -2
-10 5 -17 18 -19 37 -5 58 -78 30 -101 -12 -10 -15 -7 -21 17 -18 85 -144 162
-275 170 -71 4 -82 2 -130 -24 -29 -16 -78 -57 -109 -91 -53 -59 -81 -77 -81
-52 0 19 92 119 138 151 49 34 154 78 162 69 3 -4 25 -7 50 -7z m-999 -31
c-12 -20 -14 -14 -5 12 4 9 9 14 11 11 3 -2 0 -13 -6 -23z m1245 -19 c24 -20
44 -41 44 -48 0 -6 -7 -3 -14 7 -7 9 -16 17 -19 17 -2 0 -19 14 -37 30 -45 42
-28 38 26 -6z m652 -51 c40 -92 53 -133 43 -133 -6 0 -49 103 -90 214 -2 6 0
8 4 4 5 -5 24 -43 43 -85z m-1912 35 c-4 -21 -99 -218 -103 -214 -2 2 9 32 25
67 16 35 39 85 51 112 21 46 31 59 27 35z m244 -58 c0 -5 -7 -10 -16 -10 -8 0
-12 5 -9 10 3 6 10 10 16 10 5 0 9 -4 9 -10z m413 -37 c-23 -16 -33 -73 -13
-73 6 0 10 -10 10 -23 0 -13 5 -28 12 -35 6 -6 9 -15 5 -18 -3 -4 -20 7 -37
24 -26 27 -30 37 -30 86 0 49 3 56 19 56 11 0 23 5 27 11 4 8 10 7 18 -1 8 -9
5 -16 -11 -27z m1375 -176 c6 -6 14 -26 17 -42 4 -17 25 -65 47 -109 21 -43
37 -81 34 -84 -3 -3 -6 0 -6 7 0 6 -12 16 -26 21 -15 6 -22 15 -18 21 3 6 2
14 -3 18 -12 8 -43 75 -43 93 0 8 -9 30 -19 51 -14 27 -15 37 -6 37 7 0 17 -6
23 -13z m-768 -119 c0 -10 3 -9 9 1 5 7 14 12 21 9 7 -2 -7 -24 -34 -55 -39
-43 -72 -64 -199 -127 -145 -72 -187 -87 -187 -67 0 5 -9 7 -20 4 -26 -7 -25
4 3 28 34 31 79 48 110 42 22 -4 26 -2 21 11 -5 12 15 26 92 61 54 25 101 49
104 53 8 12 64 51 73 52 4 0 7 -6 7 -12z m663 -33 c4 -8 2 -17 -3 -20 -6 -4
-10 -4 -10 -1 0 2 -3 11 -6 20 -3 9 -2 16 4 16 5 0 12 -7 15 -15z m-834 -14
c18 -12 2 -21 -46 -25 -21 -3 -51 -10 -68 -16 -25 -9 -28 -9 -17 2 7 7 34 20
60 29 60 21 55 20 71 10z m798 -67 c-12 -13 -37 6 -37 28 l0 22 22 -21 c12
-13 19 -25 15 -29z m43 16 c0 -16 -5 -30 -10 -30 -6 0 -9 12 -6 28 5 33 5 32
11 32 3 0 5 -13 5 -30z m-1015 -9 c-3 -5 -18 -12 -33 -16 -15 -3 -55 -22 -87
-41 l-60 -36 29 31 c37 38 171 93 151 62z m1025 -51 c0 -5 -5 -10 -11 -10 -5
0 -7 5 -4 10 3 6 8 10 11 10 2 0 4 -4 4 -10z m245 -83 c14 -30 25 -58 25 -64
0 -5 9 -18 20 -28 11 -10 20 -23 19 -29 -4 -31 3 -49 27 -71 l27 -25 -36 0
c-19 0 -38 -6 -40 -12 -3 -7 -6 -3 -6 10 -1 13 5 22 14 22 19 0 19 4 0 40 -9
17 -12 30 -8 30 5 1 -1 8 -12 18 -11 9 -29 44 -39 77 -10 33 -21 66 -23 73 -3
6 -3 12 1 12 3 0 17 -24 31 -53z m-275 21 c-3 -36 -1 -48 9 -48 5 0 11 12 13
27 2 14 8 28 14 30 16 5 27 -57 13 -74 -9 -10 -8 -18 6 -33 12 -13 15 -27 11
-44 -5 -19 -3 -24 7 -20 22 8 15 -65 -7 -81 -10 -8 -15 -18 -12 -24 4 -5 2
-12 -3 -15 -11 -7 -18 10 -26 70 -3 27 -10 58 -14 69 -14 36 -30 89 -37 128
-5 31 -3 37 11 37 11 0 16 -7 15 -22z m-2220 -72 c0 -3 -4 -8 -10 -11 -5 -3
-10 -1 -10 4 0 6 5 11 10 11 6 0 10 -2 10 -4z m986 -115 c5 -5 22 -11 37 -13
24 -2 32 -12 51 -59 12 -31 37 -78 54 -105 96 -151 105 -169 117 -233 7 -36
23 -111 34 -166 12 -55 24 -126 28 -158 6 -63 19 -81 31 -46 6 14 11 18 16 11
4 -6 -2 -39 -14 -73 -11 -34 -20 -68 -20 -76 0 -7 -6 -16 -14 -19 -8 -3 -12
-12 -9 -20 7 -19 23 -18 23 1 0 13 3 13 20 3 20 -13 26 -38 13 -52 -17 -16
-28 -114 -21 -179 11 -107 22 -129 44 -84 47 94 60 117 67 117 4 0 3 -8 -3
-17 -28 -50 -73 -163 -81 -201 -8 -40 -7 -44 22 -70 17 -15 41 -37 54 -49 12
-12 26 -19 29 -16 3 4 3 -8 0 -26 -4 -19 -3 -36 4 -40 5 -3 13 -32 17 -63 6
-46 4 -58 -6 -58 -10 -1 -8 -4 4 -11 14 -8 17 -24 17 -90 0 -46 -6 -93 -14
-112 -8 -18 -65 -109 -127 -204 -63 -94 -126 -192 -141 -216 -19 -33 -35 -47
-57 -52 -28 -6 -44 -25 -22 -25 14 0 57 -97 71 -160 17 -73 30 -110 41 -110
23 0 6 -68 -29 -116 -188 -262 -178 -249 -192 -227 -9 15 -10 10 -7 -24 4 -32
1 -43 -12 -48 -13 -5 -11 -9 12 -23 15 -9 27 -25 27 -35 0 -10 7 -28 15 -40 8
-13 23 -49 34 -82 36 -114 148 -365 162 -365 13 0 -2 172 -18 218 -9 23 -13
45 -9 49 3 3 6 -1 6 -10 0 -9 5 -17 11 -17 6 0 9 7 5 15 -3 8 -4 15 -2 15 3 0
10 2 18 5 10 4 13 -15 12 -95 0 -55 3 -100 7 -100 8 0 29 134 33 208 2 41 9
61 30 88 15 20 35 39 44 43 39 16 82 47 82 58 0 15 39 28 51 16 9 -9 -244
-576 -259 -581 -5 -1 -31 48 -59 110 -208 465 -253 568 -253 583 0 9 8 19 18
22 11 2 32 25 48 51 16 25 34 50 40 56 24 24 134 178 134 188 0 5 -8 12 -17
15 -11 2 -34 40 -57 91 -98 222 -100 232 -47 232 26 0 34 7 52 43 37 72 122
207 131 207 4 0 8 7 8 16 0 8 13 35 30 59 43 62 90 151 90 168 0 11 -12 17
-37 19 -37 3 -38 4 -41 45 l-3 42 33 -10 33 -9 -41 38 c-38 34 -43 45 -58 120
-54 264 -157 421 -333 507 -42 21 -85 48 -95 60 -10 13 -51 35 -95 50 -237 84
-322 137 -399 250 -63 92 -67 100 -25 55 120 -128 143 -149 207 -181 37 -19
77 -42 87 -51 15 -13 31 -15 73 -11 48 5 54 4 48 -11 -4 -10 -1 -16 9 -16 8 0
20 -6 26 -14 6 -8 31 -19 54 -25 111 -28 295 -181 350 -291 l28 -55 -6 45 c-4
25 -8 51 -11 58 -2 6 -2 12 1 12 2 0 10 -6 17 -12 61 -56 71 -63 60 -43 -6 11
-34 47 -64 79 -53 59 -64 86 -83 196 -3 19 -10 51 -15 70 -10 37 -10 80 0 80
8 0 9 7 11 87 2 60 2 61 22 43 10 -10 26 -16 33 -13 12 4 8 17 -16 60 -17 30
-29 57 -27 59 3 4 76 -76 127 -139 14 -16 15 -13 12 35 -2 29 -8 57 -13 62 -5
6 -9 20 -9 33 0 15 -9 27 -25 35 -13 6 -27 19 -30 29 -3 9 -17 25 -31 34 -18
11 -23 22 -19 36 4 13 2 19 -8 19 -9 0 -18 6 -20 13 -3 6 -6 3 -7 -8 -1 -18
-2 -17 -14 5 -8 14 -17 41 -21 60 -4 19 -13 44 -20 55 -7 11 -31 72 -54 135
-47 126 -66 250 -39 250 7 0 18 -4 24 -9z m-1049 -23 c-3 -8 -6 -5 -6 6 -1 11
2 17 5 13 3 -3 4 -12 1 -19z m33 -23 c0 -8 -4 -15 -10 -15 -5 0 -7 7 -4 15 4
8 8 15 10 15 2 0 4 -7 4 -15z m2368 -20 c-2 -16 -9 -25 -19 -25 -25 0 -29 11
-12 36 18 28 33 23 31 -11z m-2422 -22 c-10 -10 -19 5 -10 18 6 11 8 11 12 0
2 -7 1 -15 -2 -18z m2710 -26 c28 -48 45 -110 33 -122 -7 -7 -8 -5 -4 6 3 9
-1 22 -10 29 -8 7 -15 18 -15 25 0 7 -7 18 -15 25 -8 7 -13 16 -10 20 3 5 -4
11 -15 15 -11 3 -20 15 -20 25 0 28 33 14 56 -23z m-235 -28 c30 -38 57 -98
83 -184 11 -36 11 -41 -3 -41 -9 -1 -22 -3 -30 -5 -7 -2 -15 3 -16 11 -6 34
-35 91 -50 96 -8 3 -15 17 -15 30 0 13 -4 24 -8 24 -7 0 -32 77 -32 98 0 4 9
8 20 9 12 1 31 -14 51 -38z m-2501 11 c-6 -11 -13 -20 -16 -20 -2 0 0 9 6 20
6 11 13 20 16 20 2 0 0 -9 -6 -20z m2319 -40 c0 -9 -4 -8 -9 5 -5 11 -9 27 -9
35 0 9 4 8 9 -5 5 -11 9 -27 9 -35z m101 -58 c0 -15 -2 -15 -10 -2 -13 20 -13
33 0 25 6 -3 10 -14 10 -23z m-1594 -12 c33 -16 71 -42 85 -56 26 -30 17 -26
-49 19 -24 16 -46 27 -49 24 -3 -3 9 -23 27 -45 34 -42 62 -111 52 -126 -3 -6
-8 -3 -10 4 -3 8 -11 19 -18 23 -8 4 -14 14 -14 21 0 25 -60 106 -101 136
l-42 30 30 0 c16 0 57 -13 89 -30z m1207 23 c2 -5 -15 -22 -38 -39 -35 -26
-42 -28 -38 -13 3 12 0 19 -8 19 -9 1 -7 6 5 15 22 17 50 20 41 5 -3 -6 1 -7
9 -4 9 3 13 10 10 15 -3 5 -1 9 5 9 5 0 12 -3 14 -7z m-974 -111 c6 -11 6 -24
1 -32 -11 -18 -14 -15 -33 33 -16 36 -15 37 3 27 11 -6 24 -18 29 -28z m-639
-92 c-19 -11 -1 -33 22 -27 22 6 47 -6 86 -40 14 -13 31 -23 39 -23 7 0 24 -7
36 -15 63 -41 213 -26 273 27 38 34 47 18 14 -24 -66 -84 -329 -89 -420 -8
-17 15 -30 31 -29 36 1 5 1 16 0 24 -1 12 -3 12 -10 2 -11 -18 -48 33 -57 76
-5 24 -2 31 12 34 25 5 55 -49 34 -62z m-229 12 c6 -20 34 -93 62 -162 27 -69
51 -132 52 -140 1 -8 14 -42 29 -75 34 -74 126 -317 126 -332 0 -6 5 -13 12
-15 6 -2 8 -9 5 -15 -9 -15 -57 7 -57 26 0 8 -8 23 -17 33 -10 11 -19 36 -20
56 -1 20 -7 38 -13 40 -5 2 -7 8 -4 14 4 6 1 14 -6 18 -13 8 -50 95 -50 117 0
7 -11 28 -24 48 -14 20 -28 50 -31 68 -4 18 -18 58 -31 89 -13 31 -21 65 -17
74 4 10 0 22 -10 29 -9 6 -18 28 -20 48 -2 19 -9 42 -15 50 -7 8 -9 17 -5 20
3 4 -2 16 -11 26 -17 18 -17 19 1 23 26 6 30 2 44 -40z m-295 -3 c10 -20 19
-28 23 -20 5 7 14 -2 24 -24 20 -41 21 -49 7 -40 -21 13 -9 -10 15 -30 15 -12
35 -48 49 -88 13 -37 30 -76 38 -85 17 -20 68 -134 68 -151 0 -7 -4 -9 -10 -6
-5 3 -10 1 -10 -4 0 -6 6 -11 13 -11 24 0 62 -106 47 -130 -8 -13 -80 130
-190 375 -39 88 -78 174 -86 192 -25 56 -15 74 12 22z m2676 -55 c-11 -26 -24
-50 -31 -52 -14 -5 -15 25 -1 33 6 4 18 25 27 48 9 22 18 36 20 30 2 -5 -5
-32 -15 -59z m-2412 6 c0 -5 -2 -10 -4 -10 -3 0 -8 5 -11 10 -3 6 -1 10 4 10
6 0 11 -4 11 -10z m1723 -29 c19 -33 87 -61 149 -61 51 0 178 22 178 31 0 4
14 15 31 23 24 12 35 13 45 5 11 -9 10 -16 -7 -40 -55 -78 -318 -79 -391 -2
-27 29 -46 73 -31 73 5 0 16 -13 26 -29z m-1195 -1 c25 0 33 -3 23 -9 -7 -5
-21 -7 -30 -6 -9 2 -26 4 -38 4 -13 1 -23 6 -23 12 0 6 7 8 16 5 9 -3 32 -6
52 -6z m-177 -94 c59 -32 176 -66 231 -66 56 0 129 22 157 48 28 26 41 28 41
6 0 -43 -77 -104 -131 -104 -11 0 -19 -3 -19 -7 0 -9 -117 -5 -140 4 -26 10
-44 15 -66 17 -12 0 -20 6 -18 11 2 6 -10 17 -28 24 -38 17 -128 106 -128 126
0 10 8 7 24 -9 14 -12 48 -35 77 -50z m1826 32 c-40 -53 -100 -113 -129 -131
-14 -9 -49 -18 -77 -21 -28 -3 -54 -7 -59 -10 -16 -9 -167 16 -175 30 -4 8
-13 14 -20 14 -17 1 -67 70 -67 93 0 18 1 19 23 3 12 -9 32 -23 45 -32 61 -44
145 -54 246 -28 75 19 195 78 214 105 8 11 16 18 19 15 3 -3 -6 -20 -20 -38z
m-2000 -60 c-3 -8 -6 -5 -6 6 -1 11 2 17 5 13 3 -3 4 -12 1 -19z m903 -13 c0
-5 -5 -3 -10 5 -5 8 -10 20 -10 25 0 6 5 3 10 -5 5 -8 10 -19 10 -25z m1272 3
c-7 -7 -12 -8 -12 -2 0 14 12 26 19 19 2 -3 -1 -11 -7 -17z m-2121 -114 c19
-41 52 -85 97 -129 58 -58 87 -77 218 -141 149 -73 185 -99 236 -174 17 -25
17 -24 13 33 -3 36 -1 56 5 52 24 -15 47 -185 33 -250 l-9 -39 -28 87 c-42
129 -100 196 -211 248 -86 39 -158 69 -161 67 -1 -2 5 -19 15 -38 13 -28 22
-35 46 -35 28 0 30 -3 36 -45 9 -61 -6 -205 -37 -353 -14 -67 -26 -130 -25
-139 0 -24 -35 -23 -48 1 -6 10 -22 54 -37 97 -14 43 -33 87 -41 96 -11 12
-13 28 -9 51 4 22 1 45 -11 67 -9 18 -19 47 -23 64 -4 21 -15 36 -35 45 -17 8
-24 16 -18 18 7 3 22 -1 35 -8 13 -8 26 -12 30 -11 4 1 22 -5 40 -12 26 -11
37 -12 49 -2 15 11 15 13 -1 34 -10 12 -24 44 -31 72 -7 27 -16 50 -21 50 -4
0 -8 6 -8 13 0 8 -8 21 -18 31 -23 20 -67 108 -80 161 -6 22 -20 66 -31 97
-23 62 -30 128 -9 78 6 -14 24 -53 39 -86z m2379 97 c0 -11 -29 -35 -35 -29
-10 9 7 38 21 38 8 0 14 -4 14 -9z m-315 -135 c-9 -31 -21 -56 -26 -56 -12 0
-12 27 1 35 5 3 14 24 20 46 6 23 14 39 16 36 3 -3 -2 -30 -11 -61z m-1535 18
c0 -8 -4 -14 -8 -14 -4 0 -8 9 -8 19 0 11 4 17 8 15 4 -3 8 -12 8 -20z m649
-136 c-1 -87 -4 -134 -8 -108 -6 47 -2 260 5 260 2 0 3 -69 3 -152z m-732 106
c-3 -3 -12 -4 -19 -1 -8 3 -5 6 6 6 11 1 17 -2 13 -5z m3 -24 c0 -5 -7 -10
-16 -10 -8 0 -12 5 -9 10 3 6 10 10 16 10 5 0 9 -4 9 -10z m1840 -10 c0 -5 -4
-10 -10 -10 -5 0 -10 5 -10 10 0 6 5 10 10 10 6 0 10 -4 10 -10z m-320 -36 c0
-8 -9 -22 -20 -31 -14 -13 -16 -19 -7 -25 8 -5 5 -8 -9 -8 -16 0 -21 5 -19 23
4 36 4 37 20 37 8 0 15 7 15 16 0 8 5 12 10 9 6 -3 10 -13 10 -21z m-1465 -25
c-10 -15 -25 -10 -19 6 4 8 10 12 15 9 5 -3 7 -10 4 -15z m1508 -41 c-13 -35
-40 -103 -59 -153 -19 -49 -39 -99 -45 -109 -6 -11 -15 -33 -20 -48 -7 -25 -4
-30 17 -40 13 -6 24 -15 24 -20 0 -11 -7 -10 -31 2 -13 7 -19 7 -19 0 0 -5 5
-10 10 -10 6 0 10 -6 10 -14 0 -8 8 -17 18 -19 9 -3 3 -5 -14 -6 -17 0 -37 -8
-44 -16 -10 -12 -8 -16 11 -24 l24 -10 -22 -7 c-19 -5 -21 -9 -12 -26 14 -25
3 -68 -16 -68 -8 0 -15 -6 -15 -14 0 -14 -29 -26 -66 -26 -18 0 -22 8 -27 43
-3 23 -15 91 -26 151 -20 103 -20 156 0 156 5 0 9 -3 9 -8 0 -6 90 -52 103
-52 3 0 -13 18 -35 41 -31 31 -38 43 -27 49 7 5 16 7 20 4 4 -2 21 1 39 7 l31
11 -23 12 c-13 7 -22 19 -20 29 2 12 -4 17 -18 17 -13 0 -20 5 -17 13 2 6 13
12 25 12 11 0 29 8 40 18 22 20 32 22 32 4 0 -8 -11 -20 -25 -27 l-25 -13 31
-19 c16 -10 27 -23 24 -28 -3 -6 -4 -10 -1 -10 3 0 13 16 22 35 9 19 20 32 25
30 4 -3 16 9 25 27 11 22 13 33 5 36 -6 2 -11 8 -11 14 0 6 6 8 14 5 13 -5 33
33 40 76 3 21 17 37 31 37 10 0 7 -15 -12 -62z m-203 48 c0 -12 -142 -81 -241
-117 -133 -48 -161 -68 -152 -110 4 -19 1 -29 -6 -29 -8 0 -10 8 -6 21 6 18 4
20 -17 14 -45 -14 -96 -45 -132 -78 -40 -38 -42 -38 -21 2 35 70 140 130 400
235 162 65 175 69 175 62z m445 -26 c4 -6 -7 -39 -23 -73 -16 -34 -44 -96 -62
-137 -18 -41 -37 -76 -41 -78 -5 -2 -9 -17 -9 -33 0 -32 -65 -187 -87 -205 -7
-6 -10 -14 -6 -18 4 -4 0 -4 -10 0 -25 9 -22 24 24 122 22 48 46 101 54 117 7
17 36 77 63 135 28 58 56 122 63 143 13 38 23 45 34 27z m-371 -35 c-10 -15
-23 -24 -31 -21 -8 3 -21 2 -31 -3 -9 -5 -38 -20 -64 -32 -27 -13 -48 -26 -48
-29 0 -3 -13 -7 -30 -8 -16 -1 -30 2 -30 8 0 5 6 10 13 10 7 0 44 16 81 35 38
19 79 35 92 35 13 0 32 9 41 20 23 27 28 17 7 -15z m-1466 18 c-10 -2 -26 -2
-35 0 -10 3 -2 5 17 5 19 0 27 -2 18 -5z m1192 -131 c0 -5 -19 -23 -42 -40
-75 -55 -94 -77 -122 -138 -16 -32 -33 -69 -39 -81 -6 -13 -15 -23 -20 -23
-14 0 -1 161 14 174 8 8 10 1 7 -26 -2 -21 0 -38 4 -38 4 0 8 4 8 9 0 20 76
104 123 136 53 36 67 41 67 27z m-1730 -112 c3 -14 16 -47 29 -75 78 -171 107
-230 114 -233 11 -5 8 -82 -3 -82 -5 0 -10 9 -10 20 0 11 -5 20 -10 20 -6 0
-20 21 -32 48 -35 76 -46 112 -37 112 5 0 9 5 9 10 0 6 -8 10 -17 10 -14 0
-15 2 -5 9 11 6 10 9 -5 13 -21 6 -98 152 -88 168 12 20 50 7 55 -20z m2124
-299 c9 -14 -4 -41 -20 -41 -15 0 -17 10 -8 34 7 18 20 21 28 7z m-50 -137
c-9 -27 -29 -65 -44 -84 -15 -19 -30 -53 -34 -75 -10 -54 -28 -105 -38 -105
-4 0 -8 -9 -8 -20 0 -11 -4 -20 -10 -20 -5 0 -10 -8 -10 -19 0 -25 -37 -112
-77 -184 -18 -33 -33 -62 -33 -66 0 -4 -11 -30 -25 -58 -23 -49 -45 -75 -45
-55 0 16 43 117 54 127 6 6 13 19 14 30 5 30 62 145 71 145 8 0 18 41 24 98 1
12 8 27 16 31 7 5 10 14 7 20 -4 6 2 28 13 49 11 20 32 64 47 97 15 33 38 85
51 115 20 43 27 51 34 38 5 -10 3 -33 -7 -64z m-124 26 c-6 -11 -15 -20 -20
-20 -16 0 -11 18 8 29 24 14 24 14 12 -9z m-1753 -37 c8 -21 22 -46 31 -56 9
-10 17 -25 18 -33 1 -9 10 -24 19 -35 20 -21 13 -52 -10 -43 -8 3 -15 2 -15
-3 0 -14 21 -32 34 -28 13 5 80 -130 72 -144 -4 -5 0 -15 7 -23 24 -24 54 -83
68 -130 7 -27 16 -48 20 -48 3 0 18 -33 33 -72 16 -40 48 -120 73 -178 25 -58
60 -148 79 -200 l33 -95 -4 105 c-17 434 -17 467 -1 483 24 24 20 47 -9 47
-26 0 -35 23 -14 35 6 4 9 21 7 37 -3 31 23 61 38 45 4 -4 9 -195 11 -424 3
-284 1 -415 -6 -408 -9 9 -139 288 -286 615 -24 52 -69 151 -100 220 -137 300
-146 323 -140 347 8 34 24 28 42 -14z m1733 2 c0 -4 -8 -20 -17 -38 -9 -18
-17 -34 -18 -37 -2 -16 -31 -70 -37 -70 -5 0 -8 16 -8 36 0 28 7 44 30 66 17
15 30 33 30 38 0 6 5 10 10 10 6 0 10 -2 10 -5z m-1551 -66 c23 -53 -15 -54
-42 0 -15 30 -15 31 6 31 15 0 27 -10 36 -31z m117 -179 c9 0 13 -4 10 -9 -4
-5 0 -12 6 -14 8 -4 7 -6 -4 -6 -13 -1 -15 -9 -12 -43 3 -34 2 -38 -5 -18 -5
14 -16 39 -25 55 -20 38 -20 49 0 41 9 -3 22 -6 30 -6z m1256 -42 c-7 -7 -10
-5 -7 8 5 29 6 30 12 16 3 -8 1 -18 -5 -24z m-1158 -14 c4 -10 0 -11 -19 -2
-13 6 -26 17 -29 24 -4 10 0 11 19 2 13 -6 26 -17 29 -24z m983 -56 c6 -8 9
-76 8 -168 -4 -207 -3 -200 -18 -200 -10 0 -13 44 -16 190 -2 183 1 209 26
178z m-1067 -17 c0 -5 3 -17 7 -26 5 -16 4 -15 -15 1 -26 22 -28 34 -7 34 8 0
15 -4 15 -9z m1210 -38 c0 -20 -3 -24 -11 -16 -7 7 -9 19 -6 27 10 24 17 19
17 -11z m-1200 -54 c0 -6 -4 -7 -10 -4 -5 3 -10 11 -10 16 0 6 5 7 10 4 6 -3
10 -11 10 -16z m33 -123 c6 -16 -2 -28 -14 -20 -12 7 -11 34 0 34 5 0 11 -6
14 -14z m1091 -131 c-6 -16 -24 -21 -24 -7 0 11 11 22 21 22 5 0 6 -7 3 -15z
m-1056 -40 c-3 -3 -9 2 -12 12 -6 14 -5 15 5 6 7 -7 10 -15 7 -18z m29 -137
c-3 -7 -5 -2 -5 12 0 14 2 19 5 13 2 -7 2 -19 0 -25z"/>
<path d="M1362 8205 c0 -16 2 -22 5 -12 2 9 2 23 0 30 -3 6 -5 -1 -5 -18z"/>
<path d="M4730 3478 c0 -5 14 -8 30 -8 17 0 30 4 30 10 0 5 -13 8 -30 7 -16
-1 -30 -5 -30 -9z"/>
<path d="M4778 3463 c-23 -6 -22 -9 2 -33 10 -10 22 -15 25 -10 3 5 0 12 -6
16 -8 5 -8 9 1 14 15 10 1 18 -22 13z"/>
<path d="M4760 3121 c0 -10 11 -26 25 -35 14 -9 22 -22 19 -30 -5 -14 13 -33
22 -23 7 7 -48 107 -58 107 -4 0 -8 -8 -8 -19z"/>
<path d="M4750 2793 c0 -10 38 -73 44 -73 2 0 11 3 20 6 28 11 18 41 -16 55
-18 7 -36 14 -40 17 -5 2 -8 0 -8 -5z"/>
<path d="M4837 2724 c-4 -4 -7 -14 -7 -23 0 -11 3 -12 11 -4 6 6 10 16 7 23
-2 6 -7 8 -11 4z"/>
<path d="M4850 336 c0 -9 5 -16 10 -16 6 0 10 4 10 9 0 6 -4 13 -10 16 -5 3
-10 -1 -10 -9z"/>
<path d="M3440 3321 c0 -6 4 -13 10 -16 6 -3 7 1 4 9 -7 18 -14 21 -14 7z"/>
<path d="M3971 2669 c8 -16 14 -18 22 -10 9 9 8 14 -3 21 -24 16 -31 11 -19
-11z"/>
</g>
</svg>
